<svg id="Layer_1" data-name="Layer 1" xmlns="http://www.w3.org/2000/svg" viewBox="0 0 998.718 998.884"><path d="M874.237,1000,814.266,825.616h-248.2L507.018,1000H381.537L623.275,338.45H757.98L999.718,1000ZM783.816,724.127,726.61,554.357q-3.693-11.985-11.069-34.6-7.4-22.6-13.843-46.133-6.465-23.532-11.068-39.214Q686,453.788,679.1,477.774q-6.923,24-12.918,45.208-6.012,21.242-9.689,31.375l-58.126,169.77Z" transform="translate(-1 -1.116)"/><path d="M361.344,300.7C361.344,225.1,292.1,170.7,196.007,170.7S30.67,225.1,30.67,300.7c0,77.011,69.246,130.714,165.337,130.714S361.344,377.715,361.344,300.7Zm-221.154,0c0-29.677,23.315-43.811,55.817-43.811s55.817,14.134,55.817,43.811c0,30.382-23.315,44.509-55.817,44.509S140.19,331.086,140.19,300.7Z" transform="translate(-1 -1.116)"/><polygon points="390.021 64.3 252.24 64.3 252.24 0 137.774 0 137.774 64.3 0 64.3 0 152.62 390.021 152.62 390.021 64.3"/><polygon points="527.09 460.664 527.09 288.28 590.05 288.28 609.759 234.315 609.759 195.014 527.09 195.014 527.09 1.416 412.631 1.416 412.631 496.716 513.923 496.716 527.09 460.664"/><polygon points="489.15 564.546 205.604 564.546 205.604 460.684 91.145 460.684 91.145 654.282 456.376 654.282 489.15 564.546"/></svg>