<svg id="Layer_1" data-name="Layer 1" xmlns="http://www.w3.org/2000/svg" viewBox="0 0 1000 1000"><path d="M145.473,839.884l-.046-.046a29.113,29.113,0,0,1-7.57-28l62.179-233.07A28.4,28.4,0,0,1,207.391,566L649.725,123.662a29.05,29.05,0,0,1,41.079,41.08L253.856,601.69l-47.3,177.294,178.016-46.638,436-437.753a28.863,28.863,0,0,1,40.817.18l.042.042a28.864,28.864,0,0,1,.3,40.777L420.287,778.811a28.389,28.389,0,0,1-12.931,7.428L173.4,847.533A29.119,29.119,0,0,1,145.473,839.884Z" style="fill:#04040f"/><path d="M775.906,211.094c-61.359-61.358-79.019-136.238-41.08-174.177S847.645,16.638,909,78s79.018,136.238,41.079,174.178S837.264,272.453,775.906,211.094Zm92.018-92.018C827.291,78.443,784.651,69.251,775.906,78s.447,51.386,41.079,92.019S900.258,219.839,909,211.094,908.557,159.709,867.924,119.076Z" style="fill:#04040f"/><path d="M310.886,671.185a29.048,29.048,0,0,1,41.079-41.08c40.633,40.633,83.273,49.825,92.019,41.08a29.047,29.047,0,0,1,41.079,41.079C447.124,750.2,372.244,732.543,310.886,671.185Z" style="fill:#04040f"/><path d="M677.534,304.537a29.048,29.048,0,1,1,41.079-41.08c40.633,40.633,83.273,49.825,92.018,41.08a29.048,29.048,0,1,1,41.08,41.079C813.772,383.556,738.892,365.9,677.534,304.537Z" style="fill:#04040f"/><path d="M463.77,218.752C289.885,110.519,116,47,116,47" style="fill:none;stroke:#04040f;stroke-linecap:round;stroke-miterlimit:10;stroke-width:50px"/><path d="M116,879s566.091,208.484,680-128c30.711-90.718,13.638-176.083-31.373-253.95" style="fill:none;stroke:#04040f;stroke-linecap:round;stroke-miterlimit:10;stroke-width:50px"/></svg>