<svg id="Layer_1" fill="#17babc" data-name="Layer 1" xmlns="http://www.w3.org/2000/svg" viewBox="0 0 300 300"><path d="M83.627,2.505a61.3,61.3,0,1,0,61.3,61.295A61.295,61.295,0,0,0,83.627,2.505Zm0,95.737A34.442,34.442,0,1,1,118.069,63.8,34.442,34.442,0,0,1,83.627,98.242Z"/><path d="M278.006,63.216a61.283,61.283,0,0,0-122.561,0h-.015V125.1h26.854V63.216h.014a34.432,34.432,0,0,1,68.855,0h.015V125.1h26.853V63.216Z"/><path d="M216.747,135.168a61.293,61.293,0,0,0-61.293,59.076h-.045v89.637a13.428,13.428,0,0,0,13.427,13.427h0a13.428,13.428,0,0,0,13.427-13.427V247.172a61.3,61.3,0,1,0,34.484-112Zm-.042,95.737a34.442,34.442,0,1,1,34.442-34.442A34.442,34.442,0,0,1,216.705,230.905Z"/><path d="M144.387,191.857a61.148,61.148,0,0,0-61-56.97c-1.163,0-2.318.036-3.465.1H49.047v-.1H21.885v161.9H80.5c.955.045,1.915.07,2.881.07a61.148,61.148,0,0,0,61.147-61.147Zm-95.34-30.494h32.4v.053c.69-.042,1.384-.065,2.085-.065a34.443,34.443,0,0,1,34.4,32.656h.065v41.921h-.024a34.44,34.44,0,0,1-34.437,34.079c-.7,0-1.395-.024-2.085-.065v.029h-32.4Z"/></svg>