<?xml version="1.0" encoding="utf-8"?>
<!-- Generator: Adobe Illustrator 24.3.0, SVG Export Plug-In . SVG Version: 6.00 Build 0)  -->
<svg version="1.1" id="Layer_1" xmlns="http://www.w3.org/2000/svg" xmlns:xlink="http://www.w3.org/1999/xlink" x="0px" y="0px"
	 viewBox="0 0 1175.1 255.3" style="enable-background:new 0 0 1175.1 255.3;" xml:space="preserve">
<g id="Layer_2_1_">
	<g id="Layer_1-2">
		<path d="M530.8,179.8h-29.9V59.4c0-8.3,6.7-15,15-15l0,0c8.3,0,15,6.7,15,15L530.8,179.8z"/>
		<path d="M872.8,179.8h-29.9V15c0-8.3,6.7-15,15-15l0,0c8.3,0,15,6.7,15,15L872.8,179.8z"/>
		<path d="M1024,108.2c-1.8-37.7-33.8-66.8-71.5-65s-66.8,33.8-65,71.5c1.8,37.7,33.8,66.8,71.5,65c12.6-0.6,24.7-4.6,35.1-11.7
			v11.8h29.9V108.2z M955.7,149.9c-21.2,0-38.4-17.2-38.4-38.4s17.2-38.4,38.4-38.4c21.2,0,38.4,17.2,38.4,38.4
			S976.9,149.9,955.7,149.9L955.7,149.9L955.7,149.9z"/>
		<path d="M1160.2,44.4c-8.3,0-15,6.7-15,15v52.7l0,0c-0.3,21.2-17.8,38.1-39,37.8c-20.7-0.3-37.4-17-37.8-37.8l0,0V59.4
			c0-8.3-6.7-15-15-15l0,0c-8.3,0-15,6.7-15,15v54l0,0c1.1,37.7,32.5,67.4,70.2,66.4c13-0.4,25.7-4.5,36.5-11.8v19.6l0,0
			c-0.3,21.2-17.8,38.1-39,37.8c-20.7-0.3-37.4-17-37.8-37.8h-29.9c0.5,37.7,31.4,68,69.2,67.5c37.1-0.4,67.1-30.4,67.5-67.5l0,0
			V59.4c0-8.3-6.7-15-15-15L1160.2,44.4z"/>
		<path d="M760,44.4c-36.8,0-67,29.1-68.3,65.9l0,0v130.1c0,8.3,6.7,15,15,15l0,0l0,0c8.3,0,15-6.7,15-15l0,0v-71
			c31.2,21.2,73.7,13,94.9-18.2c21.2-31.2,13-73.7-18.2-94.9C787,48.5,773.7,44.4,760,44.4z M760,151.2c-21.2,0-38.4-17.2-38.4-38.4
			s17.2-38.4,38.4-38.4c21.2,0,38.4,17.2,38.4,38.4S781.2,151.2,760,151.2L760,151.2z"/>
		<path d="M673.8,140.6c1.7-13.5-3.8-19.8-12-25.6l0,0c-19.1-10.2-59.9-14.5-72-19.1c-11.9-4.4-4.3-13.8-4.3-13.8l0,0
			c6.8-6,16.5-7.8,26.2-7.8c11,0,21.5,4.7,28.8,13c2.8,3.2,6.9,5,11.1,5l0,0c12.8,0,19.8-15.1,11.4-24.7
			c-13-14.7-31.6-23.2-51.3-23.2c-27.4,0-50.2,12.6-61.5,38.7l0,0c0,0-3.5,11.7,1.3,18.9c14.9,22.4,64.6,23,80.3,28.7
			c13.2,4.8,5.4,10.8,5.4,10.8l0,0c-15.8,14.1-40.1,12.7-54.2-3.1c-0.6-0.6-1.1-1.3-1.6-2c-2.8-3.6-7.2-5.7-11.7-5.7l0,0
			c-8.3,0-15,6.7-15,15c0,3.4,1.2,6.7,3.3,9.3c12.9,16.5,32.8,26.2,53.8,26.2c27.4,0,54-14.9,61.9-39.3"/>
		<path d="M484.6,64c-2.5-35.8-32.2-63.5-68-63.5c-1.3,0-2.6,0-3.9,0.1h-81.6V0.5h-30.3V181h112.5c1.1,0,2.1,0.1,3.2,0.1
			c37.7,0,68.2-30.5,68.2-68.2L484.6,64z M455.2,113.1L455.2,113.1c-0.2,21-17.3,38-38.4,38c-0.8,0-1.6,0-2.3-0.1h-83.3v-35.2
			c-0.1-1-0.1-2-0.1-3.1c0-1,0-2.1,0.1-3.1V71.5c-0.1-1-0.1-2-0.1-3.1c0-1,0-2.1,0.1-3.1V30h83.3v0.1c0.8,0,1.5-0.1,2.3-0.1
			c20.4,0,37.3,16,38.4,36.4h0.1V113.1z"/>
		<path d="M68.3,44.6C30.6,44.6,0,75.2,0,112.9s30.6,68.3,68.3,68.3s68.3-30.6,68.3-68.3S106.1,44.6,68.3,44.6L68.3,44.6z
			 M68.3,151.3c-21.2,0-38.4-17.2-38.4-38.4s17.2-38.4,38.4-38.4s38.4,17.2,38.4,38.4S89.5,151.3,68.3,151.3L68.3,151.3z"/>
		<path d="M285.1,112.3c-0.5-37.7-31.4-68-69.2-67.5c-37.1,0.4-67,30.4-67.5,67.5l0,0v69h29.9v-69l0,0c0.3-21.2,17.8-38.1,39-37.8
			c20.7,0.3,37.4,17,37.8,37.8l0,0v69h29.9V112.3z"/>
	</g>
</g>
<circle cx="515.9" cy="15.3" r="15"/>
</svg>
