<svg fill="#fff" xmlns="http://www.w3.org/2000/svg" viewBox="0 0 1175.09 255.33"><g id="Layer_2" data-name="Layer 2"><g id="Layer_1-2" data-name="Layer 1"><path d="M530.83,179.8H500.89V59.39a15,15,0,0,1,15-15h0a15,15,0,0,1,15,15Z"/><path d="M872.76,179.8H842.82V15a15,15,0,0,1,15-15h0a15,15,0,0,1,15,15Z"/><path d="M1024,108.2A68.33,68.33,0,1,0,994.09,168V179.8H1024V108.2Zm-68.26,41.66a38.4,38.4,0,1,1,38.4-38.4,38.4,38.4,0,0,1-38.4,38.4h0Z"/><path d="M1160.22,44.42a15,15,0,0,0-15,15v52.72h0a38.39,38.39,0,0,1-76.77,0h0V59.39a15,15,0,0,0-15-15h0a15,15,0,0,0-15,15v54h0A68.33,68.33,0,0,0,1145.15,168v19.62h0a38.39,38.39,0,0,1-76.77,0h-29.94a68.33,68.33,0,0,0,136.65,0h0V59.39a15,15,0,0,0-15-15Z"/><path d="M760,44.42a68.33,68.33,0,0,0-68.34,65.86h0V240.33a15,15,0,0,0,15,15h0a15,15,0,0,0,15-15v-71A68.34,68.34,0,1,0,760,44.42ZM760,151.16a38.4,38.4,0,1,1,38.4-38.4,38.4,38.4,0,0,1-38.4,38.4Z"/><path d="M673.76,140.63c1.7-13.51-3.8-19.75-12-25.55h0c-19.09-10.17-59.9-14.54-72-19.07-11.86-4.45-4.3-13.83-4.3-13.83h0c6.77-6,16.51-7.82,26.23-7.82a38.28,38.28,0,0,1,28.78,13,14.89,14.89,0,0,0,11.13,5h0c12.81,0,19.82-15.14,11.36-24.74a68.16,68.16,0,0,0-51.27-23.15c-27.44,0-50.23,12.58-61.52,38.65h0s-3.49,11.68,1.3,18.87c14.94,22.41,64.63,23,80.32,28.72,13.16,4.78,5.39,10.78,5.39,10.78h0a38.39,38.39,0,0,1-54.2-3.14c-.57-.64-1.11-1.29-1.63-2a14.85,14.85,0,0,0-11.74-5.68h0A15,15,0,0,0,557.89,155a68.21,68.21,0,0,0,53.77,26.16c27.37,0,54-14.94,61.92-39.34"/><path d="M484.62,64A68.18,68.18,0,0,0,416.6.49c-1.29,0-2.58,0-3.86.11H331.13V.49H300.85V181H413.39c1.07,0,2.14.08,3.21.08a68.19,68.19,0,0,0,68.18-68.18m-29.59.24h0a38.4,38.4,0,0,1-38.39,38c-.78,0-1.56,0-2.33-.07H331.13V115.83c-.08-1-.12-2-.12-3.07a26,26,0,0,1,.12-3.08V71.49c-.08-1-.12-2-.12-3.07a26,26,0,0,1,.12-3.08V30h83.31v.06c.77-.05,1.55-.08,2.33-.08a38.4,38.4,0,0,1,38.35,36.41h.07Z"/><path d="M68.34,44.57a68.34,68.34,0,1,0,68.34,68.34A68.34,68.34,0,0,0,68.34,44.57Zm0,106.74a38.4,38.4,0,1,1,38.4-38.4,38.4,38.4,0,0,1-38.4,38.4Z"/><path d="M285.06,112.26a68.33,68.33,0,0,0-136.65,0h0v69h29.94v-69h0a38.39,38.39,0,0,1,76.77,0h0v69h29.94Z"/></g></g></svg>